<svg fill="none" xmlns="http://www.w3.org/2000/svg" viewBox="0 0 49 120">
  <path d="M48.526 14.045v91.912l-24.188 14.045V28.09l24.188-14.045z" fill="url(#8-YA7nNtzhpva)"/>
  <path d="M24.338 28.09v91.912L0 105.968V14.045L24.338 28.09z" fill="url(#8-YA7nNtzhpvb)"/>
  <path d="M48.526 14.045L24.338 28.09 0 14.045 24.188 0l24.338 14.045z" fill="url(#8-YA7nNtzhpvc)"/>
  <path d="M27.801 16.237c1.7.226 2.861.022 4.345-.838 2.506-1.45 2.011-2.847-.645-4.384l-5.184-2.988-13.1 7.609 5.26 3.03c2.635 1.515 5.42 1.816 8.044.29 1.689-.978 1.925-1.784 1.28-2.719zm-3.86 1.075c-1.302.752-2.227.591-3.335-.043l-2.452-1.408 3.205-1.859L23.8 15.41c1.065.613 1.205 1.279.13 1.902h.01zm2.043-3.235l-2.388-1.375 3.119-1.816 2.366 1.365c1.011.58 1.076 1.15 0 1.784-1.043.601-2.043.644-3.087.043h-.01z" fill="url(#8-YA7nNtzhpvd)"/>
  <path d="M0 14.045v.699l24.338 14.034 24.188-14.045v-.688L24.338 28.09 0 14.045z" fill="#fff" opacity=".5"/>
  <defs>
    <linearGradient id="8-YA7nNtzhpva" x1="36.438" y1="31.078" x2="36.438" y2="127.804" gradientUnits="userSpaceOnUse">
      <stop stop-color="#8EA3CF"/>
      <stop offset="1" stop-color="#798BB0"/>
    </linearGradient>
    <linearGradient id="8-YA7nNtzhpvb" x1="-25.693" y1="32.066" x2="39.637" y2="92.491" gradientUnits="userSpaceOnUse">
      <stop stop-color="#8EA3CF"/>
      <stop offset="1" stop-color="#798BB0"/>
    </linearGradient>
    <linearGradient id="8-YA7nNtzhpvc" x1="18.692" y1="8.747" x2="66.181" y2="54.038" gradientUnits="userSpaceOnUse">
      <stop stop-color="#8EA3CF"/>
      <stop offset="1" stop-color="#798BB0"/>
    </linearGradient>
    <linearGradient id="8-YA7nNtzhpvd" x1="13.218" y1="14.002" x2="33.77" y2="14.002" gradientUnits="userSpaceOnUse">
      <stop stop-color="#fff"/>
      <stop offset="1" stop-color="#E6F4FF"/>
    </linearGradient>
  </defs>
</svg>
