<svg fill="none" xmlns="http://www.w3.org/2000/svg" viewBox="0 0 49 54">
  <path d="M48.515 14.034v25.039L24.327 53.118V28.08l24.188-14.045z" fill="url(#NgcwHqc2g_LDa)"/>
  <path d="M24.328 28.08v25.038L0 39.073V14.045L24.328 28.08z" fill="url(#NgcwHqc2g_LDb)"/>
  <path d="M48.515 14.034L24.327 28.08 0 14.045 24.188 0l24.327 14.034z" fill="url(#NgcwHqc2g_LDc)"/>
  <path d="M28.232 8.113l-16.058 5.9 2.678 1.547 2.893-1.074 4.614 2.665-1.839 1.676 2.678 1.548 10.131-9.317-5.076-2.934-.021-.01zm-7.69 5.32l7.56-2.848.936.537-4.883 4.385-3.613-2.085v.01z" fill="url(#NgcwHqc2g_LDd)"/>
  <path d="M0 14.045v.688l24.328 14.034 24.187-14.045v-.688L24.327 28.08 0 14.045z" fill="#fff" opacity=".5"/>
  <defs>
    <linearGradient id="NgcwHqc2g_LDa" x1="36.427" y1="20.321" x2="36.427" y2="55.987" gradientUnits="userSpaceOnUse">
      <stop stop-color="#55617D"/>
      <stop offset="1" stop-color="#363E4F"/>
    </linearGradient>
    <linearGradient id="NgcwHqc2g_LDb" x1="-6.55" y1="16.291" x2="25.744" y2="46.159" gradientUnits="userSpaceOnUse">
      <stop stop-color="#55617D"/>
      <stop offset="1" stop-color="#363E4F"/>
    </linearGradient>
    <linearGradient id="NgcwHqc2g_LDc" x1="18.692" y1="8.737" x2="66.181" y2="54.027" gradientUnits="userSpaceOnUse">
      <stop stop-color="#55617D"/>
      <stop offset="1" stop-color="#363E4F"/>
    </linearGradient>
    <linearGradient id="NgcwHqc2g_LDd" x1="12.164" y1="14.239" x2="33.308" y2="14.239" gradientUnits="userSpaceOnUse">
      <stop stop-color="#fff"/>
      <stop offset="1" stop-color="#E6F4FF"/>
    </linearGradient>
  </defs>
</svg>
