<svg fill="none" xmlns="http://www.w3.org/2000/svg" viewBox="0 0 44 26">
  <path d="M30.694 7.5c-1.634-.945-4.28-.956-5.925 0-1.646.946-1.646 2.483-.022 3.429 1.635.945 4.291.945 5.926 0 1.645-.957 1.645-2.483.021-3.428z" fill="url(#sW4pfxj36xJza)"/>
  <path d="M42.47.71c-1.634-.946-4.29-.946-5.925 0-1.645.945-1.645 2.482-.022 3.427 1.635.946 4.292.946 5.926 0 1.646-.945 1.646-2.482.022-3.428z" fill="url(#sW4pfxj36xJzb)"/>
  <path d="M18.929 14.292c-1.635-.945-4.28-.956-5.926 0-1.646.946-1.646 2.483-.022 3.428 1.635.946 4.291.946 5.926 0 1.646-.956 1.645-2.482.022-3.428z" fill="url(#sW4pfxj36xJzc)"/>
  <path d="M7.163 21.084c-1.635-.946-4.28-.956-5.926 0-1.646.946-1.646 2.482-.022 3.428 1.635.946 4.292.946 5.926 0 1.657-.957 1.657-2.482.022-3.428z" fill="#2F57E4"/>
  <defs>
    <linearGradient id="sW4pfxj36xJza" x1="24.855" y1="7.683" x2="35.724" y2="13.504" gradientUnits="userSpaceOnUse">
      <stop stop-color="#8EA3CF"/>
      <stop offset="1" stop-color="#798BB0"/>
    </linearGradient>
    <linearGradient id="sW4pfxj36xJzb" x1="37.696" y1="1.547" x2="48.566" y2="6.895" gradientUnits="userSpaceOnUse">
      <stop stop-color="#55617D"/>
      <stop offset="1" stop-color="#363E4F"/>
    </linearGradient>
    <linearGradient id="sW4pfxj36xJzc" x1="13.917" y1="14.873" x2="24.678" y2="20.876" gradientUnits="userSpaceOnUse">
      <stop stop-color="#D4E2FF"/>
      <stop offset="1" stop-color="#B9CAED"/>
    </linearGradient>
  </defs>
</svg>
