<svg fill="none" xmlns="http://www.w3.org/2000/svg" viewBox="0 0 11 44">
  <path fill-rule="evenodd" clip-rule="evenodd" d="M4.503 15.205l.194 3.514s-.463 3.32-.721 5.577c-.258 2.257-1.517 8.973-1.646 9.392-.14.42-1.505 1.73-1.753 2.375-.247.645-.15 1.032-.258 1.623-.107.59-.484 1.622-.236 1.633.236.022.99-.226 1.161-.956.172-.731.312-1.01.387-.989.065.022.258 1.913.237 2.375-.022.451-.473 1.86-.602 2.235-.14.366-.301 1.343.021 1.57.312.225.473.02.484 0 .01-.022.732-1.516.979-2.043.613-.365.871-.44 1.043-.58.172-.14.398-.398.398-.398s.785-.118.893-.3c.107-.172.172-.355.172-.355s.527-.14.72-.484c.194-.343.205-1.063.258-1.461.054-.398-.225-3.213-.193-3.643.032-.43 3.99-14.658 4.13-15.56.14-.903.28-3.514.28-3.514H4.513l-.011-.011z" fill="#FDDDC8"/>
  <path fill-rule="evenodd" clip-rule="evenodd" d="M10.128 5.512C9.665 2.622 8.332.45 7.514.042c-.946-.473-3.7 3.095-3.646 8.296.054 6.566.398 9.811.398 9.811L2.191 33.656s1.355 1.247 4.29.591c0 0 4.11-15.765 4.11-16.098 0 0 0-9.747-.463-12.637z" fill="#2F57E4"/>
</svg>
