<svg fill="none" xmlns="http://www.w3.org/2000/svg" viewBox="0 0 14 21">
  <path fill-rule="evenodd" clip-rule="evenodd" d="M10.024 11.75s-.097 1.364.064 2.3c.108.601.506 1.353.914 1.912.215.301.226 1.698-.796 2.547-1.215 1.01-3 2.031-4.56 1.956-.58-.075-1.731-.097-1.796-1-.01-.204 0-.419.054-.634.258-1.16.377-2.675.258-4.266l5.872-2.815h-.01z" fill="#FDDDC8"/>
  <path fill-rule="evenodd" clip-rule="evenodd" d="M10.067 13.91c-.119-.935-.043-2.16-.043-2.16l-5.787 2.88c.151 1.536-.064 2.923-.311 4.062.15.311.408.559.87.548 1.14-.022 3.496-2.106 5.26-5.32l.01-.01z" fill="url(#0axMCzYUl6yxa)"/>
  <path fill-rule="evenodd" clip-rule="evenodd" d="M4.044 1.38C2.14 2.637 1.43 4.56 1.355 6.14c-.086 1.57 0 2.128-.183 2.945-.172.816-.161 2.289 0 3.363.162 1.075.753 2.676.893 2.923.129.247.839.602 1.731.548.893-.053 4.26-1.354 5.066-1.977.817-.623 1.441-2.225 1.441-2.225s1.947-1.3 2.624-4.072c.678-2.773-1.226-6.448-3.624-6.91-2.398-.451-4.528.161-5.26.645z" fill="#FDDDC8"/>
  <path fill-rule="evenodd" clip-rule="evenodd" d="M2.818 7.043S.958 6.688 0 4.002h.742S.29 2.218.333.875l2.28.397L2.205.241s1.01.107 2.667 0c1.656-.108 5.26-.72 6.85.558 1.593 1.28 1.571 3.106 1.571 3.106s.699 1.45.409 3.138c-.29 1.698-3.227 4.943-3.227 4.943l-.882-2.17-.29 1.15-.29-.13s-.043-1.472-.065-1.612c-.021-.15-.495-.515-.538-.87-.043-.355.13-1.14-.29-1.214-.42-.086-4.431.086-5.302-.086v-.011z" fill="#363E4F"/>
  <path fill-rule="evenodd" clip-rule="evenodd" d="M9.593 9.805s.667-1.58 1.517-1.14c.86.441.72 2.644-1.065 3.6h-.452v-2.46z" fill="#FDDDC8"/>
  <defs>
    <linearGradient id="0axMCzYUl6yxa" x1="10.733" y1="15.973" x2="5.345" y2="15.209" gradientUnits="userSpaceOnUse">
      <stop stop-color="#FBD1BE"/>
      <stop offset="1" stop-color="#F8B4A8"/>
    </linearGradient>
  </defs>
</svg>
