<svg fill="none" xmlns="http://www.w3.org/2000/svg" viewBox="0 0 3 3">
  <path fill-rule="evenodd" clip-rule="evenodd" d="M1.676.698s.484.462.731.978l-.409.613s-.43-.624-.914-.967l.592-.624z" fill="#CF8F5B"/>
  <path fill-rule="evenodd" clip-rule="evenodd" d="M.095 1.397c.215.28.742.247 1.172-.086.43-.333.602-.828.377-1.118C1.418-.097.89-.054.47.28c-.43.333-.591.828-.376 1.118z" fill="#7D4A41"/>
  <path fill-rule="evenodd" clip-rule="evenodd" d="M.192 1.236c.182.236.613.204.968-.065s.494-.688.311-.913C1.29.02.858.054.504.322c-.345.269-.495.688-.312.914z" fill="#D9C8C5"/>
</svg>
