<svg fill="none" xmlns="http://www.w3.org/2000/svg" viewBox="0 0 20 33">
  <path fill-rule="evenodd" clip-rule="evenodd" d="M12.024 3.106s3.689 3.352 4.915 4.814c1.226 1.461 2.097 4.04 1.785 5.986-.312 1.945-1.409 3.17-1.677 5.276-.27 2.106.118 3.041.215 3.47 1.226 5.137 2.323 7.61 1.473 8.297-.85.688-3.936 2.396-9.346 1.655-4.915-.677-7.249-3.278-7.539-3.761-.29-.484-.312-.85-.108-1.387.194-.537 1.883-4.438 1.721-5.931C3.313 20.03-.02 11.197 0 7.521.022 3.847 1.13 1.3 3.227.774c2.097-.527 4.463.118 5.969.741 1.505.624 2.828 1.59 2.828 1.59z" fill="#2F57E4"/>
  <path fill-rule="evenodd" clip-rule="evenodd" d="M18.724 13.895c-.312 1.945-1.409 3.17-1.677 5.287-.27 2.106.118 3.041.215 3.47.398 1.677.785 3.064 1.097 4.203-2.883.763-4.431-.011-4.657-.774-1.786-5.996-1.7-13.089-1.7-13.089l6.733.903h-.01z" fill="#2143A3"/>
  <path fill-rule="evenodd" clip-rule="evenodd" d="M12.132 3.202s-.194-.623-1-1.128c-.807-.505-1.754-.849-3.163-1.257C6.636.43 5.68 0 5.68 0s-.474 1.032-.538 1.601c-.075.57 1.904 1.58 3.506 1.816 2.183.323 3.506-.204 3.506-.204l-.021-.01z" fill="#C4EAFF"/>
  <path fill-rule="evenodd" clip-rule="evenodd" d="M6.184.204c-.129.516-.322 1.462-.236 2.257-.517-.301-.85-.623-.818-.86.076-.57.538-1.601.538-1.601s.183.086.516.215v-.01z" fill="#A3DEFF"/>
</svg>
