<svg fill="none" xmlns="http://www.w3.org/2000/svg" viewBox="0 0 17 20">
  <path fill-rule="evenodd" clip-rule="evenodd" d="M2.377 10.617c1.194.73 5.377 1.247 6.27 1.902l1.344-1.59 4.12 3.804s-3.141 4.363-3.56 4.546c-.42.182-1.097-.14-2.108-.42-1.011-.279-2.044-.537-3.872-2.192C3.356 15.571 1.3 13.82 0 12.723a17.06 17.06 0 012.388-2.106h-.011z" fill="#FDDDC8"/>
  <path fill-rule="evenodd" clip-rule="evenodd" d="M16.132.01l-.817.022c-.409.323-5.055 9.102-5.926 10.757l-.774 1.053-6.26-1.934-.914 4.879s3.764 2.804 5.614 3.76c1.85.957 3.087 1.269 3.754.882.527-.3 2.441-2.6 3.258-3.578l.678-.882L16.143 0l-.01.01z" fill="#2F57E4"/>
</svg>
