<svg fill="none" xmlns="http://www.w3.org/2000/svg" viewBox="0 0 16 40">
  <path fill-rule="evenodd" clip-rule="evenodd" d="M10.932.794c2.108.548 3.215 2.17 3.602 4.04.484 2.3.28 2.461.592 3.783.312 1.322.398 2.01.183 3.288-.215 1.29-.925 3.138-1.086 3.59-.162.45-.323.633-1.044.601-.72-.032-1.645-.333-1.817-.376-.172-.032-.29.344-.29.634 0 .29.129 3.095.129 3.095H4.436s.72-2.74.215-4.922c-.506-2.181-2.657-3.288-2.882-7.393C1.532 2.986 4.08-1.001 10.92.783l.01.01z" fill="#FDDDC8"/>
  <path fill-rule="evenodd" clip-rule="evenodd" d="M3.887 12.819h6.636c.774 2.02 2.656 3.288 3.237 3.245a1.75 1.75 0 01-.58.054c-.721-.033-1.646-.333-1.818-.376-.172-.033-.29.343-.29.634 0 .29.129 3.094.129 3.094H4.436s.72-2.74.215-4.921c-.15-.634-.43-1.172-.775-1.73h.011z" fill="url(#BrWFnVFoJGT_a)"/>
  <path fill-rule="evenodd" clip-rule="evenodd" d="M5.845.149c1.408-.258 3.57-.13 4.99 0 1.42.129 3.99-.022 4.581.43.592.451 1.495 6.867-4.549 9.456-.312 2.665-.903 5.406-1.01 5.545-.108.14-2.604.828-5.13-.601-1.173-2-3.625-3.73-3.851-7.985C.629 2.363 3.565.547 5.834.127l.01.022z" fill="#363E4F"/>
  <path fill-rule="evenodd" clip-rule="evenodd" d="M1.123 8.746c1.764 6.63 1.13 9.532-.01 14.335-.85 3.557-3.28 14.862 3.635 16.066 6.915 1.203 7.152-3.471 6.334-8.114-.817-4.642-1.366-10.875-.699-17.71l-9.26-4.577z" fill="#363E4F"/>
  <path fill-rule="evenodd" clip-rule="evenodd" d="M11.47 10.433s-.227-1.505-1.087-1.676c-.86-.172-1.215 1.02-1.13 1.859.087.838.926 2.052 1.248 2.203.334.14 1.194-.774.958-2.375l.01-.011z" fill="#FDDDC8"/>
  <path fill-rule="evenodd" clip-rule="evenodd" d="M10.383 12.152c0 .205.108.366.248.366s.236-.162.236-.366-.108-.365-.237-.365-.247.161-.247.365z" fill="#301D19"/>
  <path fill-rule="evenodd" clip-rule="evenodd" d="M12.416 8.198s-.645 2.536 0 4.148c0 0-1.484-1.16-1.377-3.493l1.377-.645v-.01z" fill="#363E4F"/>
  <defs>
    <linearGradient id="BrWFnVFoJGT_a" x1="11.9" y1="18.955" x2="5.213" y2="14.684" gradientUnits="userSpaceOnUse">
      <stop stop-color="#FBD1BE"/>
      <stop offset="1" stop-color="#F8B4A8"/>
    </linearGradient>
  </defs>
</svg>
