<svg fill="none" xmlns="http://www.w3.org/2000/svg" viewBox="0 0 105 100">
  <path d="M22.209 57.266l-.032-13.078C10.626 51.345 1.258 66.97.107 80.682l11.38-5.674c.752-6.662 5.194-14.088 10.722-17.742z" fill="#54607C"/>
  <path d="M33.598 58.115c.807 1.365 1.258 3.149 1.27 5.309.01 4.008-1.506 8.478-3.916 12.336l6.97 6.383c5.108-7.823 8.345-17.054 8.324-25.285-.01-4.61-1.054-8.36-2.86-11.1l-9.777 12.346-.01.011z" fill="#D3E1FE"/>
  <path d="M32.706 56.911l9.765-12.336c-3.99-4.728-10.798-5.545-18.563-1.397l.032 13.078c3.625-1.795 6.787-1.43 8.765.655z" fill="#2F57E4"/>
  <path d="M23.155 83.702c-6.463 3.729-11.723.763-11.787-6.63L.01 82.734c0 .268-.011.537-.011.805.043 14.658 10.432 20.579 23.198 13.207 4.98-2.869 9.583-7.35 13.347-12.605l-6.958-6.383c-1.85 2.461-4.055 4.556-6.432 5.921v.022z" fill="#8396BE"/>
  <path d="M63.755 62.521l-4.71 2.719c-.969.559-1.732 1.891-1.732 2.987v5.406c.021 1.096.795 1.536 1.763.988l4.711-2.719c.957-.548 1.732-1.89 1.732-2.987V63.51c-.022-1.096-.796-1.537-1.754-.989h-.01z" fill="#54607C"/>
  <path d="M59.033 60.533l4.711-2.719c.957-.548 1.732-1.891 1.732-2.998v-5.405c-.022-1.096-.796-1.537-1.754-.989l-4.71 2.719c-.957.559-1.732 1.891-1.732 2.987v5.406c.022 1.096.796 1.547 1.764.988l-.01.011z" fill="#8396BE"/>
  <path d="M58.99 46.456l4.711-2.72c.957-.547 1.732-1.89 1.732-2.997v-5.406c-.022-1.096-.796-1.536-1.754-.988l-4.71 2.718c-.957.56-1.732 1.892-1.732 2.988v5.405c.022 1.107.796 1.548 1.764.989l-.01.01z" fill="#D3E1FE"/>
  <path d="M58.958 32.367l4.71-2.718c.958-.549 1.732-1.892 1.721-2.988v-5.416c-.021-1.096-.795-1.537-1.753-.989l-4.71 2.72c-.957.558-1.732 1.89-1.732 2.987v5.416c.022 1.096.796 1.547 1.764.988z" fill="#2F57E4"/>
  <path d="M104.032 42.243L69.358 62.242l.01 2.213 34.674-19.998-.01-2.214zm-.043-14.077L69.326 48.164v2.214l34.673-20.01-.01-2.202zm-.033-14.089L69.283 34.076v2.214l34.673-19.999v-2.214zM103.913 0L69.24 19.999l.01 2.203 34.674-19.999L103.913 0z" fill="#879BC5"/>
</svg>
