<svg fill="none" xmlns="http://www.w3.org/2000/svg" viewBox="0 0 99 28">
  <g clip-path="url(#Bew0pHK2yW8Ma)">
    <path fill-rule="evenodd" clip-rule="evenodd" d="M17.004 21.142C16.774 24.988 13.282 28 8.507 28 3.73 28 .122 24.26 0 19.6a.227.227 0 01.228-.233h3.91c.127 0 .23.105.237.233.104 2.081 1.61 3.733 4.134 3.733 2.936 0 3.858-1.652 3.909-2.475.264-4.464-12.42.142-12.409-9.334.23-3.845 3.722-6.857 8.498-6.857 4.775 0 8.385 3.74 8.507 8.4a.227.227 0 01-.228.233h-3.91a.243.243 0 01-.238-.233c-.103-2.082-1.61-3.734-4.134-3.734-2.936 0-3.857 1.652-3.908 2.476-.267 4.459 12.418-.142 12.406 9.333h.002zM43.223 0c.127 0 .23.105.23.233v16.1c0 6.165-4.71 11.212-10.68 11.639a.229.229 0 01-.24-.231v-4.216c0-.122.091-.222.211-.236 3.44-.397 6.111-3.358 6.111-6.956 0-3.598-2.671-6.559-6.111-6.955a.238.238 0 01-.212-.236V4.926c0-.133.11-.24.242-.231 2.11.149 4.065.88 5.709 2.03.156.11.372 0 .372-.194V.233c0-.128.104-.233.23-.233h4.138zm23.451 17.967V4.9a.232.232 0 00-.23-.233h-4.138a.232.232 0 00-.23.233v13.067c0 2.963-2.368 5.366-5.288 5.366-2.92 0-5.288-2.403-5.288-5.366V4.9a.232.232 0 00-.23-.233h-4.138a.232.232 0 00-.23.233v13.067c0 5.541 4.426 10.033 9.886 10.033 5.46 0 9.886-4.492 9.886-10.033z" fill="#fff"/>
    <path d="M25.628 13.545a7.068 7.068 0 00-.568 2.788c0 .992.203 1.935.568 2.789a.241.241 0 01-.096.303l-3.598 2.11a.225.225 0 01-.318-.096 11.762 11.762 0 01-1.154-5.103c0-1.83.416-3.561 1.154-5.103a.224.224 0 01.318-.096l3.598 2.11c.103.06.142.19.096.303v-.005z" fill="#F3D329"/>
    <path d="M22.435 9.798c1.924-2.882 5.083-4.844 8.707-5.101a.229.229 0 01.241.231v4.216a.238.238 0 01-.212.236 6.867 6.867 0 00-4.756 2.788.232.232 0 01-.306.068l-3.598-2.11a.23.23 0 01-.076-.326v-.002z" fill="#263E6E"/>
    <path d="M26.415 20.5a6.875 6.875 0 004.756 2.789c.12.014.212.114.212.236v4.216c0 .133-.11.24-.241.231-3.624-.259-6.783-2.219-8.707-5.1a.23.23 0 01.076-.327l3.598-2.11a.232.232 0 01.306.068v-.002z" fill="#2F57E4"/>
    <path fill-rule="evenodd" clip-rule="evenodd" d="M94.542 8.407c.172.182.464.189.69.114.023-.007.046 0 .057.024.1.184.214.359.343.52a.048.048 0 01-.01.07c-.23.147-.519.198-.786.198-.432 0-.765-.112-1-.336-.234-.228-.354-.564-.354-1.008V5.46a.046.046 0 00-.046-.047h-.368a.046.046 0 01-.046-.046v-.654c0-.025.021-.046.046-.046h.368a.046.046 0 00.046-.047v-.84c0-.026.02-.047.046-.047h.828c.025 0 .046.021.046.047v.84c0 .026.02.047.046.047h.827c.026 0 .046.02.046.046v.654c0 .025-.02.046-.046.046h-.827a.046.046 0 00-.046.047v2.506c0 .189.046.336.14.441zm-17.57-.446c-.046.77-.745 1.372-1.699 1.372-.954 0-1.676-.749-1.701-1.68 0-.025.02-.046.046-.046h.781c.026 0 .046.02.049.046.02.416.322.747.827.747.587 0 .773-.331.782-.495.023-.364-.388-.427-.88-.501-.713-.11-1.603-.243-1.6-1.365.045-.77.744-1.372 1.698-1.372s1.676.749 1.702 1.68c0 .025-.02.046-.046.046h-.782a.046.046 0 01-.046-.046c-.02-.416-.322-.747-.828-.747-.586 0-.772.331-.781.495-.023.364.386.427.88.501.713.11 1.603.245 1.6 1.365h-.002zM79.618 5.6a.812.812 0 00-.804.817v2.87c0 .025-.02.046-.046.046h-.828a.046.046 0 01-.046-.046v-2.87c0-.966.773-1.75 1.724-1.75.483 0 .918.2 1.23.525a.05.05 0 00.07 0 1.7 1.7 0 011.23-.525c.951 0 1.724.784 1.724 1.75v2.87c0 .025-.02.046-.046.046h-.828a.046.046 0 01-.046-.046v-2.87a.812.812 0 00-.805-.817.812.812 0 00-.804.817v2.87c0 .025-.02.046-.046.046h-.828a.046.046 0 01-.046-.046v-2.87c0-.45-.36-.817-.805-.817zM88.24 7c0 .772-.618 1.4-1.38 1.4A1.39 1.39 0 0185.482 7c0-.772.619-1.4 1.38-1.4.76 0 1.38.628 1.38 1.4zm-.073 1.92a.047.047 0 01.073.04v.327c0 .025.02.046.046.046h.828a.046.046 0 00.046-.046V7c0-1.288-1.03-2.333-2.3-2.333-1.269 0-2.299 1.045-2.299 2.333 0 1.288 1.03 2.333 2.3 2.333.485 0 .933-.151 1.306-.413zm4.395-3.553c0 .025-.02.046-.046.046A1.577 1.577 0 0091 7v2.287c0 .025-.02.046-.046.046h-.828a.046.046 0 01-.046-.046v-4.48c0-.026.021-.047.046-.047h.828c.025 0 .046.021.046.047v.375c0 .04.048.063.078.035a2.27 2.27 0 011.44-.55c.025 0 .046.02.046.046v.654zm-14.438 7.7c.025 0 .046.02.046.046v3.22c0 1.288-1.03 2.334-2.3 2.334-1.268 0-2.298-1.046-2.298-2.334S74.602 14 75.87 14c.485 0 .933.152 1.303.413.033.021.076 0 .076-.04v-1.26c0-.025.021-.046.046-.046h.828zm-2.253 1.866c.76 0 1.38.628 1.38 1.4 0 .773-.62 1.4-1.38 1.4a1.39 1.39 0 01-1.38-1.4c0-.772.619-1.4 1.38-1.4zm10.486 2.924c-.228.075-.52.068-.69-.114-.092-.105-.14-.252-.14-.441v-2.506c0-.026.02-.047.046-.047h.828a.046.046 0 00.046-.047v-.653a.046.046 0 00-.046-.047h-.828a.046.046 0 01-.046-.046v-.84a.046.046 0 00-.046-.047h-.828a.046.046 0 00-.046.047v.84c0 .025-.02.046-.046.046h-.367a.046.046 0 00-.046.047v.653c0 .026.02.047.046.047h.367c.026 0 .046.021.046.047v2.529c0 .443.118.78.355 1.008.234.224.57.336 1 .336.266 0 .556-.051.786-.198.023-.014.028-.047.01-.07a3.427 3.427 0 01-.343-.52.048.048 0 00-.058-.024zm-3.819-1.524c0 .773-.618 1.4-1.38 1.4a1.39 1.39 0 01-1.379-1.4c0-.772.619-1.4 1.38-1.4.76 0 1.38.628 1.38 1.4zm-.076 1.92c.033-.02.076 0 .076.04v.327c0 .026.021.047.046.047h.828a.046.046 0 00.046-.047v-2.287c0-1.288-1.03-2.333-2.3-2.333-1.268 0-2.298 1.045-2.298 2.333 0 1.288 1.03 2.334 2.299 2.334.485 0 .933-.152 1.303-.413zm6.79-.52a1.39 1.39 0 001.38-1.4c0-.772-.62-1.4-1.38-1.4a1.39 1.39 0 00-1.38 1.4c0 .773.619 1.4 1.38 1.4zm1.38.56c0-.037-.044-.06-.077-.04a2.27 2.27 0 01-1.303.414c-1.27 0-2.3-1.046-2.3-2.334S87.983 14 89.253 14c1.269 0 2.299 1.045 2.299 2.333v2.287c0 .026-.02.047-.046.047h-.828a.046.046 0 01-.046-.047v-.327zm-13.106 7.7V23.38a.046.046 0 00-.046-.047h-.827a.046.046 0 00-.046.047v2.613c0 .593-.474 1.074-1.058 1.074a1.066 1.066 0 01-1.058-1.074V23.38a.046.046 0 00-.046-.047h-.827a.046.046 0 00-.046.047v2.613c0 1.109.885 2.007 1.977 2.007s1.977-.898 1.977-2.007zM79.32 22.4c.025 0 .046.021.046.047v2.27c0 .086.069.156.154.156a.156.156 0 00.124-.063l1.094-1.458a.048.048 0 01.037-.019h1.04c.038 0 .059.045.036.075l-1.428 1.904a.05.05 0 000 .056l1.922 2.564c.02.028 0 .068-.032.068h-1.048a.048.048 0 01-.037-.019l-1.584-2.114a.156.156 0 00-.124-.063.155.155 0 00-.154.157v1.99a.047.047 0 01-.046.047h-.828a.046.046 0 01-.046-.047v-5.507c0-.025.02-.046.046-.046h.828v.002zm15.39 4.125a1.372 1.372 0 01-1.09.542 1.382 1.382 0 01-1.313-.969 1.41 1.41 0 010-.863c.18-.562.7-.968 1.313-.968.614 0 1.133.406 1.313.968a.044.044 0 01-.044.058h-2.053c-.03 0-.044 0-.057.01-.012.009-.016.02-.026.049a.957.957 0 000 .634c.01.026.014.04.026.05.011.009.027.009.057.009h3.014a.047.047 0 00.046-.04c.016-.11.023-.222.023-.334 0-1.288-1.03-2.333-2.299-2.333s-2.299 1.045-2.299 2.333c0 1.288 1.03 2.334 2.3 2.334.953 0 1.772-.59 2.119-1.43.011-.031-.01-.064-.041-.064h-.952a.047.047 0 00-.037.019v-.005zm3.189.549c.172.182.464.189.69.114.023-.007.045 0 .057.023.099.185.214.36.343.52a.048.048 0 01-.01.07c-.23.148-.52.199-.786.199-.432 0-.766-.112-1-.336-.235-.229-.354-.565-.354-1.008v-2.53a.046.046 0 00-.046-.046h-.368a.046.046 0 01-.046-.047v-.653c0-.026.02-.047.046-.047h.368a.046.046 0 00.046-.046v-.84c0-.026.02-.047.046-.047h.828c.025 0 .046.021.046.047v.84c0 .025.02.046.046.046h.827c.025 0 .046.021.046.047v.653c0 .026-.02.047-.046.047h-.828a.046.046 0 00-.046.047v2.506c0 .189.047.336.14.44zM82.86 22.4a.046.046 0 00-.046.047v.84c0 .025.02.046.046.046h.828a.046.046 0 00.046-.046v-.84a.046.046 0 00-.046-.047h-.828zm0 1.68a.046.046 0 00-.046.047v3.826c0 .026.02.047.046.047h.828a.046.046 0 00.046-.047v-3.826a.046.046 0 00-.046-.047h-.828zm2.713 1.003c0-.45.361-.816.805-.816.444 0 .805.366.805.816v2.87c0 .026.02.047.045.047h.828a.046.046 0 00.046-.047v-2.87c0-.45.361-.816.805-.816.444 0 .805.366.805.816v2.87c0 .026.02.047.045.047h.828a.046.046 0 00.046-.047v-2.87c0-.966-.772-1.75-1.724-1.75-.483 0-.917.201-1.23.525a.05.05 0 01-.07 0 1.701 1.701 0 00-1.23-.525c-.951 0-1.724.784-1.724 1.75v2.87c0 .026.021.047.046.047h.828a.046.046 0 00.046-.047v-2.87z" fill="#fff"/>
  </g>
  <defs>
    <clipPath id="Bew0pHK2yW8Ma">
      <path fill="#fff" d="M0 0h99v28H0z"/>
    </clipPath>
  </defs>
</svg>
