<svg fill="none" xmlns="http://www.w3.org/2000/svg" viewBox="0 0 85 84">
  <g clip-path="url(#FEKf00RpWeCGa)" fill="#2F57E4">
    <path d="M44.274 0c-.16 10.013-.288 20.026-.516 30.038-.39 17.205-.997 34.405-.897 51.618.005.882.408 2.338-.874 2.344-.826.003-.35-1.42-.352-2.166-.022-13.554-.173-27.104-.913-45.053-.455-9.256-.59-22.926-.551-36.6m8.406 81.379c-.041-.263-.107-.481-.105-.698.227-23.688-1.342-47.34-1.415-71.021-.003-1.08.088-2.172-.05-3.235-.219-1.693.307-2.274 2.105-2.237 1.62.033 2.113.382 2.11 2.088-.043 24.463-1.735 48.891-1.523 73.358.007.78.053 1.588-1.123 1.744zM36.667 43.2c-.576 12.162-.61 24.333-.667 36.504-.002.596.538 1.734-.413 1.766-.974.034-.826-1.111-.824-1.879.037-9.715.004-19.43-.37-29.137-.565-14.74-1.124-29.479-1.048-44.233.003-.587-.42-1.532.479-1.694 1.092-.197 2.268-.308 3.357.11.36.138.293.622.285.978-.269 12.528-.187 25.064-.799 37.585zm-7.002 3.479c-.38 7.377-.407 18.583-.494 29.79-.004.538.387 1.493-.348 1.551-.937.075-.89-.89-.89-1.627.008-9.769.036-19.541-.405-29.3-.573-12.693-.947-25.389-1-38.093-.003-.593-.4-1.53.455-1.708 1.092-.229 2.3-.321 3.366.09.48.184.276.979.268 1.508-.162 11.326-.243 22.653-.953 37.79v-.001zm27.543-5.632c-.58 12.714-.67 23.798-.737 34.882-.001.24-.01.48.004.72.04.629.008 1.392-.759 1.354-.772-.037-.397-.853-.404-1.305-.14-8.627-.108-17.26-.398-25.88-.47-13.951-1.036-27.898-1.03-41.86 0-.584-.407-1.53.483-1.68 1.098-.185 2.292-.305 3.365.104.426.162.247.871.24 1.343-.173 11.323-.223 22.648-.764 32.323zm-34.088.679c-.621 11.151-.719 20.678-.751 30.207-.002.456.37 1.27-.435 1.307-.725.033-.834-.671-.827-1.333.2-18.945-1.417-37.844-1.423-56.783 0-.671-.421-1.678.374-1.959 1.05-.37 2.263-.295 3.364-.007.547.142.37.813.364 1.273-.131 9.646-.257 19.293-.667 27.295zm-6.177-13.21c-.462 12.288-1.607 24.548-1.401 36.853.006.414.264 1.14-.478 1.11-.931-.038-.81-.855-.804-1.51.054-6.78-.09-13.557-.529-20.322-.513-7.904-.589-15.823-.962-23.73-.104-2.203 1.121-1.8 2.43-1.923 1.634-.155 1.848.557 1.778 1.967-.123 2.513-.034 5.036-.034 7.555zm53.815 15.672c-.411 5.984-.507 13.29-.597 20.594-.005.417.025.843-.054 1.247-.061.314-.373.459-.692.456-.416-.004-.426-.332-.442-.633-.009-.18-.005-.359-.004-.539.148-14.562-1.373-29.07-1.443-43.626-.013-2.61.845-3.304 3.394-2.663 1.029.259.635 1.019.636 1.594.016 7.428-.258 14.848-.798 23.57zm-6.764-3.158l-.014.702c-.633 2.223-.416 4.537-.726 6.795-.056.408-.036.84.355 1.133l-.018.721c-.52.582-.487 1.178-.046 1.784l-.01.732c-.774-.02-.472.844-.888 1.118-.483-.884-.495-1.82-.49-2.773.011-2.453.093-4.915-.59-7.314-.662-9.878-.734-19.774-.875-29.667-.014-.934.298-1.225 1.239-1.258 2.972-.102 2.938-.145 2.83 2.838-.209 5.752.07 11.516-.442 17.26-.595 1.185-.505 2.382-.06 3.584l-.05.764c-.778 1.151-.938 2.34-.215 3.582zM10.1 32.077c-.363 8.81-1.64 17.572-1.407 26.404.01.41.24 1.092-.56 1.028-.718-.057-.72-.651-.73-1.221-.06-3.415.034-6.83-.208-10.246-.504-7.115-1.048-14.227-1.208-21.365-.047-2.113 1.258-1.535 2.348-1.622 1.181-.095 1.944.085 1.803 1.63-.163 1.784-.038 3.593-.038 5.391zm68.309.913c-.609 8.432-1.456 16.845-1.413 25.302.003.552.041 1.17-.718 1.195-.682.022-.466-.581-.463-.94.099-10.435-1.39-20.8-1.405-31.23 0-.721-.478-1.823.368-2.101.972-.32 2.133-.181 3.195-.073.644.065.428.751.43 1.198.012 2.216.006 4.433.006 6.65zm5.876 5.506c-.202 3.764-1.137 7.46-1.031 11.253.01.388.123.974-.454.998-.598.025-.507-.556-.507-.954-.002-4.446-.988-8.796-1.3-13.213-.097-1.357.174-1.898 1.692-1.878 1.427.019 1.995.374 1.728 1.824-.118.643-.09 1.313-.128 1.97zm-84.1-.725c-.04-.545-.031-.849-.09-1.14-.256-1.271-.076-1.959 1.552-1.934 1.521.023 1.903.441 1.812 1.942-.268 4.413-1.34 8.747-1.246 13.191.008.396.025.938-.592.868-.488-.055-.375-.544-.367-.87.098-4.142-1.04-8.175-1.07-12.057z"/>
    <path d="M61.566 43.928c.684 2.399.602 4.86.59 7.314-.004.953.008 1.889.49 2.772.417-.273.115-1.138.888-1.118-.06 6.395-.123 12.789-.171 19.183-.005.614-.17 1.149-.824 1.15-.624 0-.422-.612-.421-.982.015-9.443-.262-18.881-.552-28.319zm1.043 28.386l.162-.001V61.969l-.162.001v10.344zm1-22.654c-.39-.292-.41-.725-.355-1.133.31-2.258.093-4.572.726-6.795-.033 2.647.029 5.298-.371 7.928zm.385-8.63c-.723-1.241-.563-2.43.216-3.581.01 1.199.074 2.4-.216 3.582zm.264-4.346c-.444-1.202-.534-2.398.061-3.583l-.06 3.584z"/>
    <path d="M63.545 52.165c-.44-.606-.474-1.202.046-1.784l-.046 1.784zm-.936 20.149V61.97l.162-.001v10.344l-.162.001z"/>
  </g>
  <defs>
    <clipPath id="FEKf00RpWeCGa">
      <path fill="#fff" d="M0 0h84.477v84H0z"/>
    </clipPath>
  </defs>
</svg>
