<svg fill="none" xmlns="http://www.w3.org/2000/svg" viewBox="0 0 76 84">
  <g clip-path="url(#60n0O7rOWbvoa)">
    <path d="M38 0C19.56 0 0 4.92 0 14v56c0 9.08 19.56 14 38 14s38-4.92 38-14V14C76 4.92 56.44 0 38 0zm34 42c0 4.16-12.92 10-34 10S4 46.16 4 42V20.48C10.64 25.4 24.6 28 38 28c13.4 0 27.36-2.6 34-7.52V42zM38 4c21.08 0 34 5.84 34 10S59.08 24 38 24 4 18.16 4 14 16.92 4 38 4zm0 76C16.92 80 4 74.16 4 70V48.48C10.64 53.4 24.6 56 38 56c13.4 0 27.36-2.6 34-7.52V70c0 4.16-12.92 10-34 10z" fill="#2F57E4"/>
  </g>
  <defs>
    <clipPath id="60n0O7rOWbvoa">
      <path fill="#fff" d="M0 0h76v84H0z"/>
    </clipPath>
  </defs>
</svg>
