<svg fill="none" xmlns="http://www.w3.org/2000/svg" viewBox="0 0 118 84">
  <g clip-path="url(#JtJ7sBn2YW2fa)" fill="#2F57E4">
    <path d="M25.2 84C11.312 84 0 72.688 0 58.8s11.312-25.2 25.2-25.2 25.2 11.312 25.2 25.2S39.088 84 25.2 84zm0-44.8c-10.808 0-19.6 8.792-19.6 19.6 0 10.808 8.792 19.6 19.6 19.6 10.808 0 19.6-8.792 19.6-19.6 0-10.808-8.792-19.6-19.6-19.6zM92.4 84c-13.888 0-25.2-11.312-25.2-25.2s11.312-25.2 25.2-25.2 25.2 11.312 25.2 25.2S106.288 84 92.4 84zm0-44.8c-10.808 0-19.6 8.792-19.6 19.6 0 10.808 8.792 19.6 19.6 19.6 10.808 0 19.6-8.792 19.6-19.6 0-10.808-8.792-19.6-19.6-19.6z"/>
    <path d="M70 61.6a2.773 2.773 0 01-2.8-2.8c0-4.648-3.752-8.4-8.4-8.4a8.389 8.389 0 00-8.4 8.4c0 1.568-1.232 2.8-2.8 2.8a2.773 2.773 0 01-2.8-2.8c0-7.728 6.272-14 14-14s14 6.272 14 14c0 1.568-1.232 2.8-2.8 2.8zM5.6 50.4c-.336 0-.728-.056-1.064-.224-1.4-.616-2.128-2.24-1.512-3.64l14-33.6C21.336 4.872 26.04 0 36.4 0c1.568 0 2.8 1.232 2.8 2.8 0 1.568-1.232 2.8-2.8 2.8-7.728 0-10.808 3.136-14.336 9.744L8.176 48.72c-.448 1.064-1.512 1.736-2.576 1.736V50.4zm106.4 0c-1.12 0-2.128-.672-2.576-1.736l-14-33.6C91.728 8.232 87.864 5.6 81.2 5.6a2.773 2.773 0 01-2.8-2.8c0-1.568 1.232-2.8 2.8-2.8 10.976 0 15.904 6.384 19.264 12.656l14.112 33.824c.616 1.4-.056 3.08-1.512 3.64-.336.168-.728.224-1.064.224v.056z"/>
  </g>
  <defs>
    <clipPath id="JtJ7sBn2YW2fa">
      <path fill="#fff" d="M0 0h117.6v84H0z"/>
    </clipPath>
  </defs>
</svg>
