<svg fill="none" xmlns="http://www.w3.org/2000/svg" viewBox="0 0 107 28">
  <g clip-path="url(#lwx6dncpgjxHa)">
    <path fill-rule="evenodd" clip-rule="evenodd" d="M104.678 17.754a.185.185 0 00-.255 0 5.36 5.36 0 01-3.654 1.423c-2.948 0-5.34-2.355-5.34-5.258 0-2.904 2.392-5.259 5.34-5.259a5.37 5.37 0 013.654 1.423.185.185 0 00.255 0l2.27-2.23a.174.174 0 000-.247 8.931 8.931 0 00-6.179-2.453c-4.916 0-8.903 3.924-8.903 8.766 0 4.841 3.987 8.765 8.903 8.765a8.949 8.949 0 006.179-2.457.17.17 0 000-.247l-2.27-2.23v.004zm-19.273-.61a5.364 5.364 0 01-4.218 2.033c-2.374 0-4.387-1.524-5.082-3.635a5.175 5.175 0 01-.258-1.623c0-.566.09-1.112.258-1.623.695-2.111 2.708-3.636 5.082-3.636 2.374 0 4.386 1.525 5.081 3.636.038.112-.048.22-.168.22h-7.948c-.113 0-.172 0-.22.03-.045.031-.065.082-.1.18-.134.373-.21.772-.21 1.19 0 .416.076.816.21 1.189.038.098.055.149.1.18.045.03.103.03.22.03h11.67a.176.176 0 00.175-.15c.059-.41.09-.83.09-1.253 0-4.842-3.987-8.765-8.904-8.765-4.916 0-8.9 3.923-8.9 8.765 0 4.842 3.984 8.765 8.9 8.765 3.695 0 6.864-2.216 8.209-5.373a.173.173 0 00-.162-.238h-3.684a.187.187 0 00-.145.072l.004.006zm-18.1 2.064c.664.687 1.795.711 2.673.433a.19.19 0 01.223.085c.379.695.826 1.349 1.328 1.955a.175.175 0 01-.037.26c-.892.55-2.01.746-3.045.746-1.672 0-2.962-.42-3.874-1.264-.912-.86-1.37-2.124-1.37-3.787V8.132a.176.176 0 00-.178-.177H61.6a.176.176 0 01-.178-.176V5.326c0-.098.079-.176.178-.176h1.425c.1 0 .179-.078.179-.176V1.819c0-.098.079-.176.179-.176h3.206c.1 0 .179.078.179.176v3.155c0 .098.079.176.179.176h3.203c.1 0 .179.078.179.176V7.78c0 .099-.08.176-.18.176h-3.202c-.1 0-.18.078-.18.177v9.419c0 .711.18 1.264.541 1.657h-.003zM55.37 1.647c-.1 0-.179.078-.179.176v3.154c0 .099.08.176.179.176h3.206c.1 0 .18-.077.18-.176V1.82a.176.176 0 00-.18-.176H55.37v.004zm0 6.308c-.1 0-.179.078-.179.177v14.376c0 .098.08.176.179.176h3.206c.1 0 .18-.078.18-.176V8.132a.176.176 0 00-.18-.177H55.37zm-4.63 4.225c0-5.807-6.765-8.88-11.282-5.827-.12.081-.292 0-.292-.146V5.68a.176.176 0 00-.18-.177H35.78c-.1 0-.179.078-.179.177v16.83c0 .098.08.176.18.176h3.206a.179.179 0 00.179-.176v-9.568c0-2.324 2.091-4.208 4.451-4.208 1.968 0 3.561 1.569 3.561 3.507v10.27c0 .097.08.175.18.175h3.206c.1 0 .178-.078.178-.176V12.18h-.003z" fill="#fff"/>
    <path d="M27.165 8.121a13.808 13.808 0 011.322 5.906c0 7.325-5.701 13.34-12.974 13.973a.349.349 0 01-.379-.346v-2.819c0-.183.145-.335.327-.355 5.326-.597 9.465-5.049 9.465-10.453 0-1.49-.313-2.907-.881-4.191a.36.36 0 01.148-.454l2.48-1.41a.35.35 0 01.492.15z" fill="#2F57E4"/>
    <path d="M22.827 7.762a10.726 10.726 0 00-8.584-4.255c-3.516 0-6.66 1.687-8.604 4.282a.37.37 0 01-.475.102l-2.48-1.41a.338.338 0 01-.114-.494A14.291 14.291 0 0114.243 0a14.27 14.27 0 0111.653 5.96.34.34 0 01-.114.495l-2.48 1.409a.366.366 0 01-.475-.102z" fill="#263E6E"/>
    <path fill-rule="evenodd" clip-rule="evenodd" d="M4.28 9.412a.352.352 0 01.148.454 10.347 10.347 0 00-.867 4.158c0 5.404 4.139 9.856 9.464 10.452.186.02.327.173.327.356v2.819a.348.348 0 01-.378.346C5.7 27.367 0 21.352 0 14.027c0-2.097.468-4.086 1.304-5.872a.35.35 0 01.492-.149l2.48 1.41.004-.004z" fill="#F3D329"/>
  </g>
  <defs>
    <clipPath id="lwx6dncpgjxHa">
      <path fill="#fff" d="M0 0h107v28H0z"/>
    </clipPath>
  </defs>
</svg>
