<svg fill="none" xmlns="http://www.w3.org/2000/svg" viewBox="0 0 144 37">
  <g clip-path="url(#SOfM6Y_uiyETa)">
    <path fill-rule="evenodd" clip-rule="evenodd" d="M140.875 23.46a.253.253 0 00-.343 0 7.286 7.286 0 01-4.917 1.881c-3.968 0-7.186-3.112-7.186-6.949 0-3.837 3.218-6.948 7.186-6.948 1.903 0 3.635.716 4.917 1.88.097.09.25.09.343 0l3.056-2.946a.228.228 0 000-.327c-2.153-2.01-5.084-3.241-8.316-3.241-6.616 0-11.983 5.184-11.983 11.582 0 6.398 5.367 11.583 11.983 11.583 3.227 0 6.158-1.236 8.316-3.246a.224.224 0 000-.327l-3.056-2.946v.005zm-25.938-.805a7.27 7.27 0 01-5.676 2.686c-3.195 0-5.904-2.015-6.839-4.804a6.723 6.723 0 01-.347-2.144c0-.748.12-1.469.347-2.145.935-2.79 3.644-4.804 6.839-4.804 3.194 0 5.903 2.015 6.838 4.804.051.148-.065.291-.227.291h-10.695c-.153 0-.232 0-.297.04-.06.04-.087.108-.134.238a4.568 4.568 0 00-.282 1.571c0 .55.102 1.08.282 1.572.051.13.074.197.134.237.061.04.139.04.297.04h15.705c.116 0 .218-.08.236-.197.079-.541.121-1.097.121-1.656 0-6.398-5.367-11.583-11.983-11.583-6.616 0-11.978 5.185-11.978 11.583 0 6.398 5.362 11.582 11.978 11.582 4.973 0 9.237-2.928 11.047-7.1.065-.148-.051-.314-.217-.314h-4.959a.256.256 0 00-.195.094l.005.009zm-24.359 2.727c.894.908 2.417.94 3.598.573a.258.258 0 01.3.112c.51.917 1.112 1.782 1.788 2.583a.228.228 0 01-.051.345c-1.2.725-2.704.985-4.098.985-2.25 0-3.986-.556-5.213-1.67-1.227-1.137-1.843-2.808-1.843-5.006V10.745a.235.235 0 00-.24-.232H82.9a.235.235 0 01-.24-.233V7.038c0-.13.106-.233.24-.233h1.917a.235.235 0 00.241-.232V2.404c0-.13.107-.233.24-.233h4.316c.134 0 .24.103.24.233v4.169c0 .13.107.232.242.232h4.31c.135 0 .241.103.241.233v3.242c0 .13-.106.233-.24.233h-4.311a.235.235 0 00-.241.232v12.447c0 .94.24 1.67.727 2.19h-.005zM74.516 2.176a.235.235 0 00-.24.233v4.168c0 .13.106.233.24.233h4.316c.134 0 .24-.103.24-.233V2.404a.235.235 0 00-.24-.233h-4.316v.005zm0 8.337a.235.235 0 00-.24.232v18.997c0 .13.106.233.24.233h4.316c.134 0 .24-.103.24-.233V10.745a.235.235 0 00-.24-.232h-4.316zm-6.232 5.583c0-7.674-9.102-11.735-15.182-7.701-.162.107-.393 0-.393-.193v-.698a.235.235 0 00-.241-.233h-4.315a.235.235 0 00-.241.233v22.243c0 .13.107.233.24.233h4.316c.13 0 .24-.103.24-.233V17.103c0-3.071 2.816-5.56 5.992-5.56 2.648 0 4.792 2.072 4.792 4.633v13.57c0 .13.107.234.241.234h4.315a.235.235 0 00.241-.233V16.096h-.005z" fill="#fff"/>
    <path d="M36.56 10.732a17.972 17.972 0 011.777 7.804c0 9.68-7.672 17.627-17.46 18.464a.466.466 0 01-.51-.457v-3.725c0-.242.195-.443.44-.47 7.168-.788 12.738-6.671 12.738-13.812 0-1.97-.421-3.842-1.185-5.539a.47.47 0 01.199-.6l3.338-1.862a.476.476 0 01.662.197z" fill="#2F57E4"/>
    <path d="M30.72 10.257C28.1 6.846 23.9 4.634 19.17 4.634c-4.732 0-8.964 2.23-11.58 5.66a.503.503 0 01-.64.133L3.612 8.566a.442.442 0 01-.152-.654C6.922 3.13 12.668 0 19.169 0c6.5 0 12.214 3.112 15.682 7.875.157.22.088.52-.153.654l-3.338 1.863a.498.498 0 01-.64-.135z" fill="#263E6E"/>
    <path fill-rule="evenodd" clip-rule="evenodd" d="M5.76 12.438c.217.12.3.38.199.6a13.462 13.462 0 00-1.167 5.493c0 7.142 5.57 13.025 12.737 13.813a.48.48 0 01.44.47v3.725a.465.465 0 01-.509.456C7.672 36.163 0 28.215 0 18.535c0-2.77.63-5.399 1.755-7.758a.476.476 0 01.662-.197l3.338 1.862.005-.004z" fill="#F3D329"/>
  </g>
  <defs>
    <clipPath id="SOfM6Y_uiyETa">
      <path fill="#fff" d="M0 0h144v37H0z"/>
    </clipPath>
  </defs>
</svg>
