<svg fill="none" xmlns="http://www.w3.org/2000/svg" viewBox="0 0 100 84">
  <g clip-path="url(#uOtuOGUdta0Ua)">
    <path d="M49.94 70.464c-20.705.077-35.624-16.28-35.629-35.148C14.306 15.63 30.206-.079 50.165 0c19.726.079 35.77 16.207 35.37 36.242-.346 17.416-14.989 34.339-35.594 34.222zM51.47 6.54c.514.922 1.435.326 2.134.558 2.088.286 4.171.687 6.073 1.572 1.997.93 3.973 1.672 6.315 1.205.21-.205-.76-.783.072-.937.65-.12 1.26-.084 1.554.807.257.781-.094.943-.793 1.027 1.406.858 1.432.876 2.198 2.388.363.716.677.992 1.275.14.453-.647 1.017-1.269 1.66-1.722.905-.638.56-.987-.075-1.532C66.696 5.588 60.657 3.06 53.88 2.184c-.964-.125-1.94-.156-2.912-.23-.02.967-.081 1.935-.04 2.9.019.446-.385 1.114.468 1.286l.073.4v.001zm-5.676 47.523l-.056.174.12.014-.102-.17c-1.455-2.064-1.449-2.207.173-4.381a14.3 14.3 0 01-5.715-3.202l-3.277 3.171c.558.474 1.053.978 1.628 1.365 2.204 1.481 4.475 2.829 7.229 3.029zM25.46 12.45c-2.566 2.867-4.67 5.928-6.214 9.35-1.654 3.668-2.665 7.49-2.845 11.525-.043.966.273 1.192 1.192 1.117 1.111-.09 2.236-.048 3.353-.007.551.02.746-.073.778-.7.327-6.512 2.746-12.2 7.05-17.111.375-.428.272-.613-.064-.939-1.085-1.05-2.142-2.128-3.25-3.235zm55.636 21.79c.537 0 1.079-.04 1.611.01.759.072 1.002-.19.95-.96-.53-7.91-3.75-14.673-8.894-20.63-.377-.437-.627-.463-1.036.005-.877 1.003-1.772 2.004-2.767 2.889-.562.5-.378.802.011 1.157 2.535 2.312 4.459 4.994 5.56 8.276.747 2.231 1.533 4.439 1.783 6.786.271 2.543.25 2.545 2.782 2.467zM71.049 54.323c1.001 1.075 2.003 2.088 2.928 3.167.531.62.808.49 1.288-.073 4.368-5.137 7.14-10.981 8.106-17.644.327-2.262-.653-3.393-2.94-3.392-.314 0-.631.03-.94-.005-.8-.094-1.147.22-1.14 1.033.008 1.2-.22 2.377-.464 3.549-1.068 5.142-3.455 9.622-6.838 13.365zM48.84 66.239c0-1.718-.84-2.664-2.52-2.837-.356-.037-.71-.102-1.062-.159-5.304-.854-9.995-3.004-13.988-6.575-.6-.536-.949-.566-1.492.047-.767.864-1.62 1.656-2.465 2.45-.41.387-.47.64.02 1.042 5.578 4.58 11.866 7.559 19.137 8.277 2.363.233 2.37.159 2.37-2.245zM27.11 10.806c.925 1.066 1.841 2.043 2.663 3.093.533.68.877.66 1.534.1 4.006-3.42 8.57-5.71 13.827-6.61 1.16-.198 2.81.226 3.361-.699.516-.867-.052-2.321.016-3.508.056-.976-.271-1.157-1.19-1.076-7.806.687-14.531 3.775-20.212 8.7zm23.796 52.698c0 1.549.035 3.052-.017 4.552-.021.61.234.573.687.548 8.03-.447 15.014-3.397 21.094-8.556.537-.455.598-.753.05-1.234a46.882 46.882 0 01-2.82-2.658c-.349-.361-.506-.308-.797.006-2.01 2.166-5.083 3.186-6.536 5.97-.21.403-.664.74-1.083.97-2.18 1.197-1.914 2.145-4.394.175-.407-.324-.84-.402-1.376-.278-1.563.362-3.154.54-4.808.505zM32.192 15.785c.94 1.102 1.82 2.112 2.673 3.145.372.45.633.565 1.163.113 3.431-2.926 7.446-4.527 11.944-4.927.601-.054.76-.261.742-.806-.04-1.193-.05-2.388-.051-3.582-.001-.595-.351-.606-.806-.563-6.074.576-11.421 2.786-15.665 6.62zm-1.548 1.687c-4.435 4.612-6.471 10.073-7.147 16.13-.078.705.195.841.801.824a85.928 85.928 0 013.492-.04c.51.005.67-.162.706-.68.315-4.605 1.94-8.698 5.019-12.185.449-.508.337-.756-.09-1.17-.955-.925-1.851-1.91-2.78-2.88zm-11.68 18.995c-.358 0-.723.043-1.074-.008-1.205-.176-1.63.216-1.486 1.492.822 7.277 3.283 13.845 8.266 19.378.434.481.726.693 1.251.108.863-.96 1.794-1.858 2.688-2.791.149-.156.513-.226.228-.594-.858-1.11-2.044-1.888-3.15-2.665-.546-.384-1.198-.62-1.558-1.236-.563-.961-1.672-1.55-2.489-1.75-2.815-.691-3.332-2.293-3.053-4.398.087-.654.422-1.327 1.246-1.33 1.95-.008 2.497-.587 2.167-2.406-.071-.392-.154-.784-.192-1.18-.17-1.747-1.118-2.62-2.844-2.62zM69.65 52.973c4.251-4.608 6.31-9.9 6.817-15.852.052-.613-.254-.793-.796-.728-1.118.135-2.235.068-3.352-.006-.362-.024-.785-.05-.723.495.117 1.02-.681 2.065.138 3.08.232.286.093.826-.307.845-.648.031-.703.47-.828.867-.877 2.782-2.174 5.335-4.146 7.522-.224.249-.488.487-.073.73.361.211.615.985 1.115.532.829-.749 1.106-.059 1.374.432.313.57.47 1.225.782 2.083zm4.245-18.818c.583 0 1.169-.039 1.747.01.673.056.85-.213.79-.842-.256-2.707-.8-5.342-1.922-7.837-.11-.246-.177-.75-.562-.593-.867.354-1.225-.323-1.487-.776-1.045-1.803-3.27-2.087-4.6-3.641-.593-.695-1.416-1.084-1.472-2.153-.017-.333-.215-.674-.388-.979-.265-.463-.604-.757-1.2-.413-.464.268-.717.504-.537 1.128.362 1.254 1.005 2.397 1.88 3.267.72.718.758 2.508 2.542 1.925.162-.053.109.363.169.55.188.585.304 1.594.472 1.7 1.174.753.984 1.73.794 2.791-.1.552-.145 1.448.51 1.381.903-.092.621.4.62.748-.003.39-.216.787-.187 1.169.19 2.521.27 2.58 2.831 2.564zm-41.42 21.018c4.255 3.303 8.765 5.472 13.955 6.12 2.276.284 2.286.258 2.275-2.004-.003-.79.216-1.745-.15-2.324-.357-.563-1.403-.206-2.141-.315-3.247-.478-6.16-1.75-9.04-3.676.203.864-.137 1.369-.799 1.311-1.414-.123-2.53.799-4.1.888zM61.092 15.34c.474-.085.605.324.871.524.5.375.685 1.433 1.475 1.07.64-.294-.135-.905-.176-1.394-.14-1.695-.78-3.237-2.374-3.984a25.474 25.474 0 00-9.298-2.38c-.82-.052-.881.253-.866.876.026 1.02.076 2.048-.027 3.058-.079.768.124.97.898 1.019 2.801.177 5.434 1.013 7.972 2.177.578.266 1.157 1.053 1.722.703.645-.401-.431-1.054-.197-1.668zm1.877 5.592c-2.667-2.164-5.535-3.703-8.853-4.368-3.21-.644-3.208-.66-3.207 2.513 0 .31.035.623-.007.927-.104.756.258.964.97 1.047 2.574.3 4.928 1.213 6.989 2.777.495.375.733.413 1.164-.083.87-1 1.796-1.962 2.944-2.813zm-25.942-.107c.96 1.016 1.895 1.97 2.785 2.961.462.515.784.415 1.316.04 2.06-1.455 4.269-2.621 6.86-2.795.706-.047.756-.379.734-.94-.04-1.017-.085-2.044.007-3.055.084-.925-.267-.965-1.063-.871-4.048.48-7.5 2.24-10.64 4.66zm8.47 16.945c.618-.135.99-.412 1.116-.834.188-.63 1.472-1.005 2.364-.675.822.305.716 1.016.484 1.551-.47 1.085-.66 2.52-2.668 2.252.844.697 1.529.887 2.237.966 1.027.115 2.099.29 2.253-1.238.057-.572.507-.733 1.079-.74 1.3-.015 1.583-.688 1.235-1.964-.262-.96-1.05-1.793-.968-2.749.11-1.298-.646-2.948-1.885-3.075-.708-.072-1.146-.368-1.654-.897-.112.75-.583 1.21-1.177 1.341-.966.213-1.434.975-2.06 1.56-.568.532-.68 1.81-.494 1.909 1.543.81.57 1.696.138 2.593zM35.226 48.616c1.103-1.134 2.162-2.257 3.263-3.338.397-.39.114-.565-.101-.855-1.2-1.62-2.097-3.388-2.65-5.328-.095-.333-.035-.837-.649-.87-.078.353-.161.696-.228 1.041-.078.401-.292.552-.654.321-.294-.186-.775-.636-.515-.777.936-.505.28-1.354.573-1.981.54-.068 1.244 1.188 1.552-.064.191-.776.048-1.666-.097-2.478-.113-.633-.721-.549-1.216-.455-.49.092-.79.462-.481.854 1.335 1.7-1.119 1.773-1.257 2.866-.027.215-1.193.028-.877.894.191.526 0 1.163.525 1.592.575.47.835 1.12.986 1.831.467 2.209.696 4.479 1.826 6.747zM31.42 34.407c.722.136 1.018-.16.763-.86-.174-.474-.022-.86.18-1.26.521-1.028 1.135-1.825 2.189-2.552 1.065-.735 2.004-1.802 3.154-2.537 1.324-.847 1.383-1.401.231-2.475-.585-.546-1.173-1.093-1.706-1.687-.478-.532-.782-.665-1.3.021-2.375 3.14-3.997 6.555-4.358 10.515-.07.779.177.93.847.835zm17.597 9.698c-.131-.116.58-.845-.336-.889-1.261-.06-2.297-.652-3.306-1.298-.35-.223-.537-.328-.869.043a37.67 37.67 0 01-2.235 2.277c-.451.427-.384.712.095 1.03 1.04.69 2.094 1.388 3.306 1.695.912.23 2.3 1.592 2.52-.72.004-.04.038-.108.064-.111 1.287-.136.93-1.031.762-2.027zM60.25 26.277c1.35.145 2.455.182 3.522.4 1.346.277 1.546 1.456 1.705 2.648.362-.204.612-.413.899-.493.782-.218 1.2.355 1.7.798.425.376.235.62.027 1.008-.207.385-.683 1.09-.291 1.246.728.29.767-.635 1.093-1.052.223-.285.066-.582.008-.882-.239-1.25-.918-2.178-2.056-2.764-.411-.212-.886-.421-.633-.972.85-1.851-.987-2.511-1.638-3.69-.166-.3-.428-.202-.654.028-1.169 1.192-2.346 2.374-3.682 3.724zm-2.44-.863c-1.268-.815-2.618-1.488-4.069-1.938-2.596-.806-2.957-.488-2.648 2.236.112.983.694 1.134 1.49.799.362-.153.68-.421.996-.667.268-.21.546-.35.844-.133.305.221.19.554.14.859-.147.906-.851 1.369-1.808 1.955.996.004 1.45 1.426 2.161.587.638-.752 1.404-1.177 2.155-1.698.172-.12.508-.342.367-.476-.787-.746.202-1.012.373-1.524zm-9.1-.342c0-.442-.014-.885.004-1.326.017-.44-.113-.654-.611-.565-2.28.41-4.385 1.197-6.134 2.756-.183.163-.514.49-.209.616 1.06.436 1.69 1.565 3.01 1.626.981.045 1.639-.034 1.913-1.103.111-.43-.012-1.077 1.082-.549 1.42.687.885-.768.945-1.455zm16.066 22.819c1.49-1.754 2.699-3.682 3.427-5.897.201-.611.236-.832-.587-.793-1.205.057-2.294.557-3.472.71-.376.05-.974 1.145-.94 1.176 1.355 1.203.441 2.422.095 3.633-.065.226.018.537.302.378.992-.556.689.616 1.175.793zM24.67 42.7c.186-.088.255-.103.256-.123.11-2.235 1.187-3.726 3.37-4.442.494-.162.124-.702.199-1.06.094-.456-.282-.489-.593-.493-1.252-.02-2.505.001-3.756-.042-.592-.021-.524.328-.49.68.176 1.84.347 3.683 1.014 5.48zm32.675 3.477c-.131-.648-.494-.254-.826-.096-1.383.657-2.799 1.065-4.276.316-.633-.32-1.12-.148-1.536.318-.41.46-.751.974-1.399 1.162-.191.056-.449.214-.29.477.065.108.355.205.457.15 1.316-.7 2.452-.235 3.672.353.986.476 3.987-1.404 4.168-2.463.007-.043.012-.087.03-.217zm-2.521 15.008c-1.26-.727-2.099-1.375-1.937-2.627.042-.32.433-.739-.087-.889-.496-.142-1.069-.14-1.585-.058-.503.079-.293.577-.288.888.018.97-.268 2.238.236 2.83.564.665 1.82-.155 2.79-.062.17.017.346-.03.87-.082zM64.91 50.991c-.555.3-.834.534-.94.883-.145.485.186.67.567.893 1.525.892 1.537.997.55 2.432-.202.295-.466.596-.24.954.15.236.145.878.656.538.771-.515 1.462-1.15 2.18-1.74.18-.15.057-.251-.049-.416-.679-1.063-1.443-2.051-2.353-2.932-.182-.177-.274-.447-.372-.613zM37.946 38.736c.558 1.704 1.219 3.193 2.387 4.56.386-.692 1.192-.962 1.29-1.727.12-.932-.887-.82-1.305-1.263-.089-.094-.141-.221-.212-.332-.476-.746-1.161-1.123-2.16-1.238zm31.08.715c.978-2.919.88-3.086-1.707-3.108-.023 0-.047.049-.023.022-.084 1.416 1.198 1.969 1.73 3.086zm-6.02 8.93c-1.94.237-3.62-1.114-5.727-.795 2.721 1.49 4.58 1.738 5.728.796zM41.873 36.795c.674-.104 1.29-.181 1.897-.3.288-.055.696-.102.548-.553-.096-.295-.105-.61-.598-.742-1.422-.377-1.386.795-1.847 1.595zm27.292-4.916c-.243.757-.556.99-.997 1.099-.603.15-.365.604-.25.959.193.6.725.408 1.126.374.63-.053.382-.468.2-.747-.285-.436.216-.81-.078-1.685zm-38.356 7.277l.21.029c.095-.687.142-1.385.301-2.057.105-.443.099-.658-.43-.656-.46.002-.502.252-.441.604.121.693.24 1.386.36 2.08zm17.039 35.31c-2.01-.426-3.523-.045-4.917.835-1.585 1-3.117 2.084-4.71 3.07-6.609 4.095-12.967 3.463-18.732-1.833.257-.208.482-.06.722.051 3.979 1.849 7.965 1.749 11.948.018 3.193-1.388 6.345-2.899 9.832-3.454 2.506-.4 4.996-.351 7.438.42.386.122.741.24 1.168.1 4.724-1.553 9.248-.763 13.696 1.123 3.367 1.427 6.686 3.036 10.531 2.727 2.027-.163 3.908-.766 5.922-1.74-2.927 3.919-8.68 5.715-13.684 4.513-3.214-.771-5.94-2.438-8.505-4.392-1.732-1.319-3.578-1.973-5.774-1.486.044.5.549.497.861.662a44.715 44.715 0 019.097 6.337c.553.496.903.949.084 1.385-.625.333-.937 1.776-2.09.563-2.801-2.945-5.784-5.682-9.38-7.698-.895-.502-1.629-.492-2.483-.004a34.912 34.912 0 00-9.056 7.44c-.294.338-.534 1.079-1.006.856-.704-.332-1.33-.916-1.842-1.515-.24-.28.3-.57.536-.8 2.498-2.45 5.318-4.476 8.4-6.145.547-.296 1.097-.583 1.945-1.033zm-33.19-23.219c.102.19.173.406.31.568 2.595 3.068 4.387 6.535 5.537 10.374.93 3.1 2.21 6.059 4.96 8.435-3.209-.59-6.171-.9-8.992-1.702C10.267 67.16 6.075 63.088 3.696 57.17c-.114-.28-.282-.566-.082-.972.695.834 1.318 1.687 2.05 2.434 1.485 1.514 3.325 2.526 5.22 3.456 2.87 1.407 5.85 2.627 8.364 4.872.054-.291.133-.454.086-.506-2.328-2.614-3.136-5.795-3.578-9.14-.23-1.751-.506-3.507-1.146-5.176-.116-.301-.146-.603.05-.89l-.002-.001zm4.945 15.763l-.09-.155c-.028.027-.083.06-.078.08.014.058.052.11.08.163l.088-.088zm.522.248l-.09-.093-.093.09c.045.03.09.062.135.094l.048-.09zM85.24 51.277c-.978 3.274-.919 6.744-1.897 10.015-.527 1.765-1.495 3.299-2.755 4.667.28.222.532.094.785-.098 2.435-1.851 5.246-3.038 7.952-4.412 2.914-1.479 5.496-3.33 7.05-6.275.345.055.222.27.213.404-.011.172-.072.345-.13.512-2.448 7.014-7.506 11.134-14.67 12.86-2.252.543-4.543.922-7.093 1.431 3.2-2.934 4.3-6.695 5.471-10.392 1.035-3.268 2.79-6.097 5.075-8.712z" fill="#2F57E4"/>
    <path d="M11.033 41.77c.573.42.607 1.074.771 1.617.839 2.775 1.065 5.652 1.316 8.516.322 3.664.544 7.338 2.417 10.653.029.052-.036.154-.08.322-4.277-2.837-8.898-5.163-12.23-9.185-2.7-3.256-3.539-7.026-3.112-11.156.725 3.68 3.435 6.01 5.883 8.498 1.62 1.646 3.22 3.293 4.543 5.32-2.099-4.941.282-9.676.492-14.585zm78.66 13.992C91.59 52.889 94.01 50.464 96.39 48c1.68-1.738 2.886-3.775 3.534-6.124.538 5.777-1.828 10.327-6.03 14.076-2.808 2.506-6.245 4.124-9.241 6.367-.095-.118-.2-.206-.184-.234 1.953-3.779 2.147-7.906 2.452-12.014.232-3.13.499-6.256 2.01-9.15-.097 2.98.915 5.79 1.217 8.702a12.885 12.885 0 01-.733 5.883l-.237.371c.207.116.382.092.515-.115zM21.95 61.887c2.698 1.783 4.985 4.039 7.25 6.301 2.27 2.267 4.891 3.832 8.033 4.547.334.076.709.092.951.434-3.62.443-7.014 1.782-10.605 2.29-6.661.941-11.927-1.32-15.978-6.549-.16-.206-.328-.408-.492-.611.167-.12.35-.132.496-.007 3.146 2.708 7.017 3.115 10.931 3.354 2.323.142 4.643.3 6.939.697.2.082.4.181.6 0l-.406-.229c-2.786-1.146-4.513-3.297-5.784-5.905-.673-1.382-1.42-2.728-2.135-4.09l.2-.232zm56.535-.532c-2.392 3.873-3.003 9.063-8.205 10.909 1.522-.2 3.042-.43 4.568-.593 2.002-.214 4.016-.328 6.013-.573 2.736-.336 5.3-1.171 7.562-3.098.127.78-.301 1.093-.591 1.418-4.32 4.84-9.651 6.87-16.126 5.558-3.195-.647-6.369-1.395-9.729-2.136.935-.277 1.726-.521 2.523-.745 3.544-.99 5.856-3.643 8.339-6.058 1.755-1.707 3.554-3.359 5.646-4.682zm-8.453 10.923c-.237-.053-.352-.097-.466-.096-.079 0-.157.061-.236.096.084.056.166.157.25.159.11.003.22-.072.452-.16z" fill="#2F57E4"/>
    <path d="M11.627 30.31c.104 3.105-.47 6.13-1.25 9.122-.391 1.5-.788 3.003-1.286 4.47-.818 2.41-1.15 4.859-.833 7.44-1.72-2.66-4.218-4.664-5.747-7.342-2.896-5.075-3.225-10.446-1.305-15.968-.333 3.512 1.173 6.525 2.62 9.536 1.061 2.206 1.733 4.523 2.31 6.929-.597-5.642 3.529-9.5 5.491-14.186zm87.375-2.818c2.379 9.596.517 14.235-7.066 23.088-.052-.056-.156-.118-.15-.166.418-3.023-.28-5.855-1.285-8.696-1.095-3.09-1.77-6.304-2.147-9.568-.083-.724-.18-1.453.113-2.22 1.284 3.166 3.639 5.721 4.906 8.879.67 1.668.61 3.411.724 5.188.507-3.937 2.519-7.334 3.804-10.983.635-1.806 1.037-3.668.7-5.606l.401.083z" fill="#2F57E4"/>
    <path d="M6.087 15.308c-1.023 2.54-.866 5.126-.476 7.726.406 2.71.593 5.43.37 8.223 1.311-4.657 5.602-6.895 8.34-10.325-.162 2.248-1.05 4.729-2.564 6.99-1.408 2.103-2.85 4.182-4.271 6.276-.794 1.17-1.187 2.541-1.896 3.806-.705-3.752-2.9-7.01-3.294-10.804-.466-4.492.828-8.451 3.791-11.892zm79.082 4.814c2.595 3.68 7.505 5.425 8.7 10.279 0-.76.022-1.522-.004-2.282-.099-2.888.218-5.753.426-8.627.121-1.683-.167-3.348-1.05-5.081 2.061 1.698 3.88 5.67 4.172 8.81.284 3.052-.03 6.006-1.344 8.824-.866 1.86-1.244 3.87-1.75 6.266-.692-3.745-2.733-6.338-4.784-8.915-2.192-2.755-3.822-5.76-4.366-9.274z" fill="#2F57E4"/>
    <path d="M80.657 11.005c2.187 3.86 6.923 4.881 9.454 8.4-1.434-3.874-.927-8.441-4.511-11.492.848-.01.889-.03 1.551.37 3.457 2.09 5.427 5.068 5.467 9.152.025 2.656.004 5.313.004 8.27-.745-.88-1.29-1.582-1.896-2.229-1.682-1.797-3.73-3.173-5.649-4.694-2.534-2.008-4.036-4.564-4.42-7.776zM7.158 26.378c.295-3.123-.421-6.165-.171-9.22.32-3.923 2.294-6.718 5.79-8.502.293-.149.603-.39 1.032-.247-3.642 3.115-2.987 7.78-4.422 11.73 2.38-3.412 6.731-4.577 9.074-8.249.322 1.129-.087 1.917-.427 2.691-1.007 2.289-2.628 4.122-4.564 5.666-2.296 1.83-4.697 3.541-6.312 6.131zm2.037-5.858c.081-.073.17-.142.237-.227.009-.01-.111-.157-.128-.149-.11.051-.206.128-.307.195l.198.18v.001z" fill="#2F57E4"/>
    <path d="M76.147 3.512c5.46.23 9.621 4.596 11.862 12.407-1.359-.8-2.373-1.74-3.37-2.677a41.996 41.996 0 01-2.965-3.078c-.931-1.074-1.83-2.19-2.615-3.371-.791-1.194-1.98-2.024-2.913-3.28zm-53.128.075c.246.288.045.488-.15.674-1.977 1.894-3.47 4.164-5.033 6.378-1.642 2.322-3.984 3.887-6.141 5.741.745-5.833 3.67-9.876 9.252-11.874.71-.254 1.39-.595 2.084-.896l-.012-.024z" fill="#2F57E4"/>
    <path d="M99.002 27.492l-.4-.084c-.139-.19-.234-.482.046-.507.275-.023.35.32.354.59z" fill="#6693C7"/>
    <path d="M23.031 3.61h.241l-.05.134a6.981 6.981 0 01-.2-.15l.009.016zM14.66 51.248c-.062.048-.173.145-.18.137-.098-.093-.07-.124.068-.09.03.008.073-.03.11-.048l.003.001zm6.763 10.747zm.327.125c-.108-.045-.216-.09-.325-.13-.002.006-.002.03-.002.032.114-.272.294-.302.527-.134l-.2.232zM51.396 6.14c.988-1.232 4.376-1.903 5.621-1.108.26.166.628.361.509.688-.158.434-.628.67-1.06.685-.976.035-1.942.1-2.895.317-.718.137-1.37-.467-2.102-.18l-.073-.402z" fill="#2F57E4"/>
    <path d="M45.755 54.081l.102.171-.12-.014.057-.174-.038.018z" fill="#2263AE"/>
    <path d="M19.603 67.01l-.088.088c-.028-.054-.066-.105-.08-.163-.005-.02.05-.053.077-.08l.09.155zm.522.248l-.048.09-.135-.093.093-.09.09.094zm69.568-11.496c-.132.207-.307.23-.514.115l.236-.371.278.255zM29.67 72.115l.405.228c-.2.182-.4.082-.6 0l.194-.228zm40.362.163c-.231.087-.342.162-.451.159-.085-.003-.167-.103-.25-.16.078-.034.156-.095.235-.095.114 0 .229.043.466.096zM9.195 20.52l-.198-.18c.1-.068.197-.145.306-.196.017-.008.138.139.13.15-.069.084-.157.153-.239.226z" fill="#1C5EAC"/>
  </g>
  <defs>
    <clipPath id="uOtuOGUdta0Ua">
      <path fill="#fff" d="M0 0h100v84H0z"/>
    </clipPath>
  </defs>
</svg>
