<svg fill="none" xmlns="http://www.w3.org/2000/svg" viewBox="0 0 133 37">
  <g clip-path="url(#9Ok-SCZeHpmpa)">
    <path fill-rule="evenodd" clip-rule="evenodd" d="M22.844 27.938c-.309 5.082-5 9.062-11.416 9.062C5.013 37 .164 32.057 0 25.9a.303.303 0 01.306-.308H5.56c.17 0 .309.139.318.308.139 2.75 2.162 4.933 5.553 4.933 3.945 0 5.183-2.183 5.251-3.271.355-5.898-16.685.188-16.67-12.333.31-5.082 5.001-9.062 11.416-9.062s11.265 4.942 11.428 11.1a.303.303 0 01-.305.308h-5.254a.324.324 0 01-.318-.308c-.14-2.75-2.162-4.934-5.554-4.934-3.944 0-5.183 2.183-5.25 3.272-.359 5.892 16.681-.188 16.666 12.333h.003zM58.068 0a.31.31 0 01.309.308v21.275c0 8.147-6.33 14.816-14.347 15.38a.305.305 0 01-.325-.305v-5.572c0-.16.124-.293.285-.311 4.62-.524 8.21-4.437 8.21-9.192 0-4.754-3.59-8.667-8.21-9.191a.317.317 0 01-.285-.311V6.509c0-.176.149-.318.325-.305a15.387 15.387 0 017.669 2.682c.21.145.5 0 .5-.256V.308A.31.31 0 0152.51 0h5.559zm31.505 23.742V6.475a.31.31 0 00-.31-.308h-5.559a.31.31 0 00-.309.308v17.267c0 3.916-3.181 7.091-7.104 7.091-3.922 0-7.104-3.175-7.104-7.091V6.475a.31.31 0 00-.309-.308h-5.56a.31.31 0 00-.308.308v17.267C63.01 31.065 68.956 37 76.29 37c7.336 0 13.282-5.935 13.282-13.258z" fill="#fff"/>
    <path d="M34.43 17.899a9.21 9.21 0 00-.763 3.684c0 1.31.272 2.556.763 3.685.065.148.01.32-.13.4l-4.834 2.788a.304.304 0 01-.426-.126 15.33 15.33 0 01-1.55-6.744c0-2.417.559-4.705 1.55-6.743a.303.303 0 01.426-.126l4.834 2.787c.14.08.192.253.13.4V17.9z" fill="#F3D329"/>
    <path d="M30.14 12.947a15.43 15.43 0 0111.697-6.74.305.305 0 01.324.305v5.572c0 .16-.124.293-.284.311a9.256 9.256 0 00-6.39 3.685.315.315 0 01-.412.09l-4.833-2.788a.302.302 0 01-.102-.432v-.003z" fill="#263E6E"/>
    <path d="M35.486 27.09a9.267 9.267 0 006.39 3.685c.161.018.285.15.285.311v5.572a.305.305 0 01-.324.305 15.44 15.44 0 01-11.697-6.74.301.301 0 01.102-.432l4.833-2.787a.315.315 0 01.411.09v-.004z" fill="#2F57E4"/>
    <path fill-rule="evenodd" clip-rule="evenodd" d="M127.011 11.11c.232.24.624.25.927.15.03-.009.061 0 .077.031.133.244.287.475.46.688a.062.062 0 01-.012.092c-.309.195-.698.262-1.057.262-.58 0-1.028-.148-1.343-.444-.315-.302-.476-.746-.476-1.332V7.215a.062.062 0 00-.062-.062h-.494a.062.062 0 01-.062-.061v-.864c0-.034.028-.061.062-.061h.494a.062.062 0 00.062-.062v-1.11c0-.034.028-.062.062-.062h1.112c.034 0 .062.028.062.062v1.11c0 .034.027.062.061.062h1.112c.034 0 .062.027.062.061v.864a.062.062 0 01-.062.061h-1.112a.061.061 0 00-.061.062v3.312c0 .25.061.444.188.582zm-23.604-.59c-.062 1.018-1.001 1.813-2.283 1.813a2.26 2.26 0 01-2.285-2.22c0-.034.028-.061.062-.061h1.05c.034 0 .062.027.065.061.027.55.432.987 1.112.987.787 0 1.037-.438 1.05-.654.031-.48-.522-.564-1.183-.663-.958-.144-2.153-.32-2.15-1.803.062-1.018 1-1.813 2.283-1.813a2.26 2.26 0 012.285 2.22.062.062 0 01-.062.061h-1.05a.062.062 0 01-.062-.061c-.027-.55-.432-.987-1.111-.987-.788 0-1.038.438-1.051.654-.03.48.519.564 1.183.663.958.145 2.153.323 2.15 1.803h-.003zm3.555-3.12c-.596 0-1.081.484-1.081 1.08v3.792a.062.062 0 01-.062.061h-1.112a.061.061 0 01-.061-.061V8.479a2.315 2.315 0 013.969-1.619.066.066 0 00.092 0 2.315 2.315 0 013.969 1.619v3.793a.062.062 0 01-.062.061h-1.111a.062.062 0 01-.062-.061V8.479a1.081 1.081 0 00-2.162 0v3.793a.062.062 0 01-.062.061h-1.112a.062.062 0 01-.062-.061V8.479c0-.595-.485-1.079-1.081-1.079zm11.583 1.85a1.853 1.853 0 01-3.707 0 1.853 1.853 0 013.707 0zm-.099 2.538c.043-.028.099 0 .099.052v.432c0 .034.028.061.062.061h1.112a.062.062 0 00.061-.061V9.25a3.087 3.087 0 00-3.088-3.083 3.087 3.087 0 00-3.089 3.083 3.087 3.087 0 004.843 2.538zm5.906-4.696a.062.062 0 01-.062.061 2.1 2.1 0 00-2.039 2.097v3.022a.062.062 0 01-.062.061h-1.111a.062.062 0 01-.062-.061v-5.92c0-.034.028-.062.062-.062h1.111c.034 0 .062.028.062.062v.496c0 .053.065.083.105.046a3.078 3.078 0 011.934-.727c.034 0 .062.027.062.061v.864zm-19.398 10.175c.034 0 .062.027.062.061v4.255a3.087 3.087 0 01-3.088 3.084 3.088 3.088 0 01-3.09-3.084 3.088 3.088 0 014.841-2.537c.043.027.102 0 .102-.053v-1.665c0-.034.028-.061.062-.061h1.111zm-3.026 2.466c1.022 0 1.853.83 1.853 1.85a1.853 1.853 0 01-3.707 0c0-1.02.831-1.85 1.854-1.85zm14.087 3.864c-.306.098-.698.09-.926-.151-.124-.14-.189-.333-.189-.583V19.55c0-.034.028-.061.062-.061h1.112a.062.062 0 00.062-.062v-.863a.062.062 0 00-.062-.062h-1.112a.062.062 0 01-.062-.062v-1.11a.062.062 0 00-.062-.061h-1.112a.061.061 0 00-.061.061v1.11a.062.062 0 01-.062.062h-.494a.062.062 0 00-.062.062v.863c0 .034.028.062.062.062h.494c.034 0 .062.027.062.061v3.343c0 .586.157 1.03.475 1.332.315.296.766.444 1.344.444.358 0 .747-.068 1.056-.262.031-.019.037-.062.013-.093a4.54 4.54 0 01-.461-.688.064.064 0 00-.077-.03zm-5.13-2.014a1.853 1.853 0 01-3.707 0 1.853 1.853 0 013.707 0zm-.102 2.538c.043-.028.102 0 .102.052v.432c0 .034.028.062.062.062h1.112a.062.062 0 00.061-.062v-3.022a3.086 3.086 0 00-3.088-3.083 3.087 3.087 0 00-3.089 3.083 3.087 3.087 0 004.84 2.538zm9.121-.688c1.022 0 1.853-.83 1.853-1.85a1.853 1.853 0 00-3.706 0c0 1.02.83 1.85 1.853 1.85zm1.853.74c0-.049-.059-.08-.102-.052a3.087 3.087 0 01-4.84-2.538 3.087 3.087 0 013.089-3.083 3.087 3.087 0 013.089 3.083v3.022a.062.062 0 01-.062.062h-1.112a.062.062 0 01-.062-.062v-.432zm-17.606 10.175v-3.453a.061.061 0 00-.061-.062h-1.112a.062.062 0 00-.062.062v3.453a1.42 1.42 0 01-2.842 0v-3.453a.062.062 0 00-.061-.062h-1.112a.062.062 0 00-.062.062v3.453A2.654 2.654 0 00101.495 37a2.654 2.654 0 002.656-2.652zm2.41-4.748c.034 0 .061.028.061.062v3a.207.207 0 00.374.123l1.47-1.927a.066.066 0 01.05-.025h1.396c.052 0 .08.059.049.099l-1.918 2.516a.066.066 0 000 .074l2.582 3.389a.056.056 0 01-.043.089h-1.408a.066.066 0 01-.05-.025l-2.128-2.793a.207.207 0 00-.374.123v2.63a.061.061 0 01-.061.062h-1.112a.062.062 0 01-.062-.062V29.66c0-.034.028-.062.062-.062h1.112v.003zm20.675 5.451a1.853 1.853 0 01-3.227-1.705 1.853 1.853 0 011.763-1.28c.825 0 1.523.537 1.764 1.28.012.04-.015.077-.059.077h-2.758c-.04 0-.059 0-.077.012-.016.013-.022.028-.034.065a1.26 1.26 0 00-.074.42c0 .148.025.286.074.419.012.034.018.052.034.065.015.012.037.012.077.012h4.049a.063.063 0 00.062-.052 3.087 3.087 0 00-3.058-3.524 3.087 3.087 0 00-3.088 3.083 3.086 3.086 0 003.088 3.083c1.282 0 2.382-.78 2.848-1.89a.06.06 0 00-.055-.083h-1.279a.066.066 0 00-.05.024v-.006zm4.285.725c.231.24.623.25.926.15.031-.008.062 0 .077.032.133.243.288.474.461.687a.063.063 0 01-.013.093c-.309.194-.698.262-1.056.262-.581 0-1.029-.148-1.344-.444-.315-.302-.475-.746-.475-1.332v-3.342a.062.062 0 00-.062-.062h-.494a.062.062 0 01-.062-.062v-.863c0-.034.028-.062.062-.062h.494a.062.062 0 00.062-.061v-1.11c0-.034.027-.062.061-.062h1.112c.034 0 .062.028.062.061v1.11c0 .034.028.062.062.062h1.112c.034 0 .062.028.062.062v.863a.062.062 0 01-.062.062h-1.112a.062.062 0 00-.062.061v3.312c0 .25.062.444.189.583zM111.317 29.6a.062.062 0 00-.062.061v1.11c0 .034.028.062.062.062h1.112a.062.062 0 00.062-.061v-1.11a.062.062 0 00-.062-.062h-1.112zm0 2.22a.062.062 0 00-.062.061v5.057c0 .034.028.062.062.062h1.112a.062.062 0 00.062-.062v-5.057a.062.062 0 00-.062-.061h-1.112zm3.645 1.326a1.081 1.081 0 012.162 0v3.792c0 .034.028.062.062.062h1.112a.061.061 0 00.061-.062v-3.792a1.082 1.082 0 012.163 0v3.792c0 .034.027.062.061.062h1.112a.062.062 0 00.062-.062v-3.792a2.315 2.315 0 00-3.969-1.62.068.068 0 01-.093 0 2.316 2.316 0 00-3.969 1.619v3.793c0 .034.028.062.062.062h1.112a.062.062 0 00.062-.062v-3.792z" fill="#fff"/>
  </g>
  <defs>
    <clipPath id="9Ok-SCZeHpmpa">
      <path fill="#fff" d="M0 0h133v37H0z"/>
    </clipPath>
  </defs>
</svg>
