<svg fill="none" xmlns="http://www.w3.org/2000/svg" viewBox="0 0 272 166">
  <path d="M233.746 124.892c-13.594-7.845 3.334-17.678-10.26-25.522-13.594-7.845-32.136 2.923-45.73-4.922-13.594-7.845 20.477-27.628 6.872-35.462-13.594-7.845-63.378 21.073-76.983 13.228-13.605-7.845 41.632-39.922 28.038-47.756-13.583-7.834-40.997 8.081-54.591.237C67.496 16.85 83.016 7.834 69.421 0L0 40.309 217.517 165.79l53.903-31.292c-13.605-7.845-24.091-1.763-37.685-9.597l.011-.01z" fill="url(#5fp7tBgH7iEia)"/>
  <defs>
    <linearGradient id="5fp7tBgH7iEia" x1="110.151" y1="122.27" x2="176.439" y2="31.757" gradientUnits="userSpaceOnUse">
      <stop stop-color="#2F57E4" stop-opacity="0"/>
      <stop offset="1" stop-color="#2F57E4"/>
    </linearGradient>
  </defs>
</svg>
