<svg fill="none" xmlns="http://www.w3.org/2000/svg" viewBox="0 0 5 8">
  <path d="M.348 1.034S1.252.046 1.445.003c.194-.043 1.828.43 2.42.516.602.086.914.172.936.29.021.118-.538.473-1.13.58-.58.097-1.43.097-1.43.097s1.979 1.15 2.29 1.461c.313.312.173 1.043.216 2.031.043.989.021 2.397-.097 2.429-.118.032-.495-.043-.893-.494-.387-.452-.86-.806-1.075-.806-.215 0-.463.365-.463.365s-.494.021-.71-.333C1.296 5.784.338 2.549.242 2.367c-.097-.183-.27-.398-.237-.634.032-.237.344-.688.344-.688v-.01z" fill="url(#49XXHUlrSKDra)"/>
  <defs>
    <linearGradient id="49XXHUlrSKDra" x1="1.574" y1="6.289" x2="4.087" y2=".442" gradientUnits="userSpaceOnUse">
      <stop stop-color="#FBDAC9"/>
      <stop offset="1" stop-color="#FBBDB5"/>
    </linearGradient>
  </defs>
</svg>
